<svg width="144" height="42" viewBox="0 0 144 42" fill="none" xmlns="http://www.w3.org/2000/svg">
<path d="M12.6904 31L8.21042 23.216H5.77442V31H2.58242V11.54H9.30242C10.7958 11.54 12.0558 11.8013 13.0824 12.324C14.1278 12.8467 14.9024 13.5467 15.4064 14.424C15.9291 15.3013 16.1904 16.2813 16.1904 17.364C16.1904 18.6333 15.8171 19.7907 15.0704 20.836C14.3424 21.8627 13.2131 22.5627 11.6824 22.936L16.4984 31H12.6904ZM5.77442 20.668H9.30242C10.4971 20.668 11.3931 20.3693 11.9904 19.772C12.6064 19.1747 12.9144 18.372 12.9144 17.364C12.9144 16.356 12.6158 15.572 12.0184 15.012C11.4211 14.4333 10.5158 14.144 9.30242 14.144H5.77442V20.668ZM34.2458 15.572V31H31.0538V29.18C30.5498 29.8147 29.8872 30.3187 29.0658 30.692C28.2632 31.0467 27.4045 31.224 26.4898 31.224C25.2765 31.224 24.1845 30.972 23.2138 30.468C22.2618 29.964 21.5058 29.2173 20.9458 28.228C20.4045 27.2387 20.1338 26.044 20.1338 24.644V15.572H23.2978V24.168C23.2978 25.5493 23.6432 26.6133 24.3338 27.36C25.0245 28.088 25.9672 28.452 27.1618 28.452C28.3565 28.452 29.2992 28.088 29.9898 27.36C30.6992 26.6133 31.0538 25.5493 31.0538 24.168V15.572H34.2458ZM41.6494 17.868C42.1908 17.1213 42.9281 16.5147 43.8614 16.048C44.8134 15.5627 45.8681 15.32 47.0254 15.32C48.3881 15.32 49.6201 15.6467 50.7214 16.3C51.8228 16.9533 52.6908 17.8867 53.3254 19.1C53.9601 20.2947 54.2774 21.6667 54.2774 23.216C54.2774 24.7653 53.9601 26.156 53.3254 27.388C52.6908 28.6013 51.8134 29.5533 50.6934 30.244C49.5921 30.916 48.3694 31.252 47.0254 31.252C45.8308 31.252 44.7668 31.0187 43.8334 30.552C42.9188 30.0853 42.1908 29.488 41.6494 28.76V31H38.4574V10.28H41.6494V17.868ZM51.0294 23.216C51.0294 22.152 50.8054 21.2373 50.3574 20.472C49.9281 19.688 49.3494 19.1 48.6214 18.708C47.9121 18.2973 47.1468 18.092 46.3254 18.092C45.5228 18.092 44.7574 18.2973 44.0294 18.708C43.3201 19.1187 42.7414 19.716 42.2934 20.5C41.8641 21.284 41.6494 22.208 41.6494 23.272C41.6494 24.336 41.8641 25.2693 42.2934 26.072C42.7414 26.856 43.3201 27.4533 44.0294 27.864C44.7574 28.2747 45.5228 28.48 46.3254 28.48C47.1468 28.48 47.9121 28.2747 48.6214 27.864C49.3494 27.4347 49.9281 26.8187 50.3574 26.016C50.8054 25.2133 51.0294 24.28 51.0294 23.216ZM59.058 13.528C58.4793 13.528 57.994 13.332 57.602 12.94C57.21 12.548 57.014 12.0627 57.014 11.484C57.014 10.9053 57.21 10.42 57.602 10.028C57.994 9.636 58.4793 9.44 59.058 9.44C59.618 9.44 60.094 9.636 60.486 10.028C60.878 10.42 61.074 10.9053 61.074 11.484C61.074 12.0627 60.878 12.548 60.486 12.94C60.094 13.332 59.618 13.528 59.058 13.528ZM60.626 15.572V31H57.434V15.572H60.626ZM78.9568 22.908C78.9568 23.4867 78.9195 24.0093 78.8448 24.476H67.0568C67.1501 25.708 67.6075 26.6973 68.4288 27.444C69.2501 28.1907 70.2581 28.564 71.4528 28.564C73.1701 28.564 74.3835 27.8453 75.0928 26.408H78.5368C78.0701 27.8267 77.2208 28.9933 75.9888 29.908C74.7755 30.804 73.2635 31.252 71.4528 31.252C69.9781 31.252 68.6528 30.9253 67.4768 30.272C66.3195 29.6 65.4048 28.6667 64.7328 27.472C64.0795 26.2587 63.7528 24.8587 63.7528 23.272C63.7528 21.6853 64.0701 20.2947 64.7048 19.1C65.3581 17.8867 66.2635 16.9533 67.4208 16.3C68.5968 15.6467 69.9408 15.32 71.4528 15.32C72.9088 15.32 74.2061 15.6373 75.3448 16.272C76.4835 16.9067 77.3701 17.8027 78.0048 18.96C78.6395 20.0987 78.9568 21.4147 78.9568 22.908ZM75.6248 21.9C75.6061 20.724 75.1861 19.7813 74.3648 19.072C73.5435 18.3627 72.5261 18.008 71.3128 18.008C70.2115 18.008 69.2688 18.3627 68.4848 19.072C67.7008 19.7627 67.2341 20.7053 67.0848 21.9H75.6248ZM85.29 10.28V31H82.098V10.28H85.29ZM88.4169 23.216C88.4169 21.6667 88.7342 20.2947 89.3689 19.1C90.0222 17.9053 90.8995 16.9813 92.0009 16.328C93.1209 15.656 94.3529 15.32 95.6969 15.32C96.9102 15.32 97.9649 15.5627 98.8609 16.048C99.7755 16.5147 100.504 17.1027 101.045 17.812V15.572H104.265V31H101.045V28.704C100.504 29.432 99.7662 30.0387 98.8329 30.524C97.8995 31.0093 96.8355 31.252 95.6409 31.252C94.3155 31.252 93.1022 30.916 92.0009 30.244C90.8995 29.5533 90.0222 28.6013 89.3689 27.388C88.7342 26.156 88.4169 24.7653 88.4169 23.216ZM101.045 23.272C101.045 22.208 100.821 21.284 100.373 20.5C99.9435 19.716 99.3742 19.1187 98.6649 18.708C97.9555 18.2973 97.1902 18.092 96.3689 18.092C95.5475 18.092 94.7822 18.2973 94.0729 18.708C93.3635 19.1 92.7849 19.688 92.3369 20.472C91.9075 21.2373 91.6929 22.152 91.6929 23.216C91.6929 24.28 91.9075 25.2133 92.3369 26.016C92.7849 26.8187 93.3635 27.4347 94.0729 27.864C94.8009 28.2747 95.5662 28.48 96.3689 28.48C97.1902 28.48 97.9555 28.2747 98.6649 27.864C99.3742 27.4533 99.9435 26.856 100.373 26.072C100.821 25.2693 101.045 24.336 101.045 23.272ZM116.241 15.32C117.455 15.32 118.537 15.572 119.489 16.076C120.46 16.58 121.216 17.3267 121.757 18.316C122.299 19.3053 122.569 20.5 122.569 21.9V31H119.405V22.376C119.405 20.9947 119.06 19.94 118.369 19.212C117.679 18.4653 116.736 18.092 115.541 18.092C114.347 18.092 113.395 18.4653 112.685 19.212C111.995 19.94 111.649 20.9947 111.649 22.376V31H108.457V15.572H111.649V17.336C112.172 16.7013 112.835 16.2067 113.637 15.852C114.459 15.4973 115.327 15.32 116.241 15.32ZM125.577 23.216C125.577 21.6667 125.894 20.2947 126.529 19.1C127.182 17.9053 128.06 16.9813 129.161 16.328C130.281 15.656 131.522 15.32 132.885 15.32C133.893 15.32 134.882 15.544 135.853 15.992C136.842 16.4213 137.626 17 138.205 17.728V10.28H141.425V31H138.205V28.676C137.682 29.4227 136.954 30.0387 136.021 30.524C135.106 31.0093 134.052 31.252 132.857 31.252C131.513 31.252 130.281 30.916 129.161 30.244C128.06 29.5533 127.182 28.6013 126.529 27.388C125.894 26.156 125.577 24.7653 125.577 23.216ZM138.205 23.272C138.205 22.208 137.981 21.284 137.533 20.5C137.104 19.716 136.534 19.1187 135.825 18.708C135.116 18.2973 134.35 18.092 133.529 18.092C132.708 18.092 131.942 18.2973 131.233 18.708C130.524 19.1 129.945 19.688 129.497 20.472C129.068 21.2373 128.853 22.152 128.853 23.216C128.853 24.28 129.068 25.2133 129.497 26.016C129.945 26.8187 130.524 27.4347 131.233 27.864C131.961 28.2747 132.726 28.48 133.529 28.48C134.35 28.48 135.116 28.2747 135.825 27.864C136.534 27.4533 137.104 26.856 137.533 26.072C137.981 25.2693 138.205 24.336 138.205 23.272Z" fill="white"/>
</svg>
